<svg width="58" height="59" viewBox="0 0 58 59" fill="none" xmlns="http://www.w3.org/2000/svg">
<rect x="0.604065" y="0.617676" width="57.168" height="57.4539" rx="4.03007" fill="#121212"/>
<g clip-path="url(#clip0_113_29)">
<path fill-rule="evenodd" clip-rule="evenodd" d="M29.188 4.92651C15.3694 4.92651 4.177 16.1749 4.177 30.0626C4.177 41.1853 11.3364 50.5799 21.2783 53.9104C22.5288 54.1304 22.9978 53.3763 22.9978 52.7165C22.9978 52.1195 22.9665 50.14 22.9665 48.0349C16.6825 49.1974 15.0568 46.4953 14.5566 45.0814C14.2752 44.3587 13.0559 42.1279 11.9929 41.5309C11.1176 41.0596 9.867 39.8971 11.9617 39.8656C13.9313 39.8342 15.3382 41.688 15.8071 42.4421C18.0581 46.2439 21.6534 45.1756 23.0916 44.5158C23.3104 42.882 23.967 41.7823 24.686 41.1539C19.1211 40.5255 13.306 38.3575 13.306 28.7429C13.306 26.0094 14.2752 23.7471 15.8696 21.9876C15.6195 21.3592 14.7441 18.7828 16.1198 15.3266C16.1198 15.3266 18.2144 14.6667 22.9978 17.903C24.9987 17.3374 27.1246 17.0547 29.2505 17.0547C31.3765 17.0547 33.5024 17.3374 35.5033 17.903C40.2866 14.6353 42.3813 15.3266 42.3813 15.3266C43.7569 18.7828 42.8815 21.3592 42.6314 21.9876C44.2259 23.7471 45.195 25.978 45.195 28.7429C45.195 38.3889 39.3487 40.5255 33.7838 41.1539C34.6904 41.9394 35.472 43.4475 35.472 45.804C35.472 49.166 35.4408 51.8681 35.4408 52.7165C35.4408 53.3763 35.9097 54.1618 37.1603 53.9104C47.0396 50.5799 54.199 41.1539 54.199 30.0626C54.199 16.1749 43.0066 4.92651 29.188 4.92651Z" fill="white"/>
</g>
<defs>
<clipPath id="clip0_113_29">
<rect x="4.177" y="4.92651" width="50.022" height="50.2721" rx="8.06014" fill="white"/>
</clipPath>
</defs>
</svg>
